<svg height="487pt" viewBox="0 -5 487.2 487" width="487pt" fill="white" xmlns="http://www.w3.org/2000/svg"><path d="m140.601562 183.851562-12.601562-8.863281v302.769531h96v-246.144531l-4.625-2.144531c-27.550781-12.855469-53.910156-28.121094-78.773438-45.617188zm67.398438 277.90625h-64v-256.21875c20.472656 13.535157 41.855469 25.632813 64 36.21875zm0 0"/><path d="m71.097656 125.460938-71.097656-71.097657v423.394531h96v-329.042968l-2.695312-2.398438c-7.800782-6.894531-15.265626-13.921875-22.207032-20.855468zm8.902344 336.296874h-64v-368.800781l43.785156 43.78125c6.398438 6.402344 13.144532 12.800781 20.214844 19.136719zm0 0"/><path d="m266.648438 248.683594-10.648438-3.726563v232.800781h96v-207.203124l-6.59375-1.183594c-26.761719-4.785156-53.097656-11.703125-78.757812-20.6875zm69.351562 213.074218h-64v-194.402343c20.964844 6.851562 42.339844 12.375 64 16.535156zm0 0"/><path d="m392.703125 275.707031-8.703125-.765625v202.816406h96v-200h-41.199219c-15.160156 0-30.664062-.691406-46.097656-2.050781zm71.296875 186.050781h-64v-169.417968c13.007812.9375 26.023438 1.417968 38.800781 1.417968h25.199219zm0 0"/><path d="m130.953125 136.355469c25.222656 20.566406 52.464844 38.527343 81.3125 53.601562 15.816406 8.359375 32.109375 15.78125 48.796875 22.222657 26.367188 10.355468 53.589844 18.386718 81.351562 24 16 3.199218 32.441407 5.695312 48.800782 7.320312 16.234375 1.503906 32.226562 2.273438 47.546875 2.273438h5.054687l-18.007812 11.132812 8.421875 13.601562 52.96875-32.75-52.933594-32.746093-8.425781 13.601562 18.015625 11.144531h-5.054688c-14.832031 0-30.320312-.746093-46.007812-2.203124-15.816407-1.597657-31.695313-3.949219-47.199219-7.078126-26.863281-5.433593-53.199219-13.195312-78.714844-23.199218-16.140625-6.230469-31.898437-13.402344-47.199218-21.480469-27.902344-14.582031-54.253907-31.949219-78.65625-51.839844-12.53125-10.175781-24.527344-20.988281-35.945313-32.402343l-91.421875-91.453126-11.3125 11.308594 91.441406 91.441406c11.800782 11.804688 24.207032 22.988282 37.167969 33.503907zm0 0"/></svg>